<svg width="36" height="36" viewBox="0 0 36 36" fill="none" xmlns="http://www.w3.org/2000/svg">
<path fill-rule="evenodd" clip-rule="evenodd" d="M18.129 35.1796C27.8103 35.1796 35.6584 27.3315 35.6584 17.6502C35.6584 7.96904 27.8103 0.12085 18.129 0.12085C8.44778 0.12085 0.599609 7.96904 0.599609 17.6502C0.599609 27.3315 8.44778 35.1796 18.129 35.1796ZM23.5976 8.28679C23.8638 7.34126 22.9462 6.78214 22.1082 7.37917L10.41 15.7129C9.50124 16.3603 9.64419 17.6502 10.6248 17.6502H13.7052V17.6264H19.7089L14.817 19.3524L12.6605 27.0137C12.3943 27.9593 13.3118 28.5184 14.1499 27.9213L25.848 19.5877C26.7568 18.9402 26.6138 17.6502 25.6333 17.6502H20.9619L23.5976 8.28679Z" fill="#F5841F"/>
</svg>
