<svg width="11" height="8" viewBox="0 0 11 8" fill="none" xmlns="http://www.w3.org/2000/svg">
<path fill-rule="evenodd" clip-rule="evenodd" d="M1.45686 1.13215H9.6509V1.13217V1.85484L5.55388 3.90335L1.45686 1.85484V1.13217V1.13215ZM0.637451 1.13217V1.13215C0.637451 0.679604 1.00431 0.312744 1.45686 0.312744H9.6509C10.1034 0.312744 10.4703 0.679604 10.4703 1.13215V1.13217V2.36125V6.4583C10.4703 7.13712 9.92001 7.68741 9.24119 7.68741H1.86656C1.18774 7.68741 0.637451 7.13712 0.637451 6.4583V2.36125V1.13217ZM1.45686 2.77096V6.4583C1.45686 6.68457 1.64029 6.868 1.86656 6.868H9.24119C9.46747 6.868 9.6509 6.68457 9.6509 6.4583V2.77096L5.55388 4.81947L1.45686 2.77096Z" fill="#F5841F"/>
</svg>
