<svg width="11" height="10" viewBox="0 0 11 10" fill="none" xmlns="http://www.w3.org/2000/svg">
<path fill-rule="evenodd" clip-rule="evenodd" d="M2.70271 0.903324C3.02264 0.583133 3.54157 0.582988 3.86168 0.903001L5.3746 2.41549C5.69458 2.73538 5.69473 3.25408 5.37493 3.57415L4.83868 4.11084L6.58168 5.85356L7.11757 5.31722C7.4375 4.99703 7.95644 4.99688 8.27654 5.31689L9.62678 6.66674C9.94676 6.98663 9.94691 7.50533 9.6271 7.8254L8.7339 8.71934C8.21018 9.24349 7.40396 9.36047 6.75287 9.00676C4.54154 7.80545 2.72504 5.98919 1.52318 3.7782C1.16945 3.12747 1.28581 2.3214 1.80939 1.79738L2.70271 0.903324ZM4.79528 2.99498L3.28236 1.48249L2.38904 2.37655C2.12205 2.64375 2.06265 3.05491 2.24309 3.38687C3.36941 5.45888 5.07175 7.16098 7.14402 8.28674C7.47605 8.46712 7.88718 8.40747 8.15426 8.14017L9.04746 7.24623L7.69722 5.89638L6.58196 7.01256L3.68006 4.11112L4.79528 2.99498Z" fill="#F5841F"/>
</svg>
