<svg width="21" height="22" viewBox="0 0 21 22" fill="none" xmlns="http://www.w3.org/2000/svg">
<path fill-rule="evenodd" clip-rule="evenodd" d="M2.36932 11C2.36932 6.43552 6.06955 2.73528 10.634 2.73528C15.1985 2.73528 18.8987 6.43552 18.8987 11C18.8987 13.4995 17.7892 15.7398 16.0358 17.2553C15.5295 14.7349 13.3034 12.8366 10.634 12.8366C7.96457 12.8366 5.73853 14.7349 5.23222 17.2552C3.47883 15.7397 2.36932 13.4994 2.36932 11ZM6.96079 18.4056C8.06731 18.9555 9.31456 19.2647 10.634 19.2647C11.9535 19.2647 13.2007 18.9555 14.3072 18.4056V18.3464C14.3072 16.3177 12.6626 14.6732 10.634 14.6732C8.60534 14.6732 6.96079 16.3177 6.96079 18.3464V18.4056ZM10.634 0.898682C5.05523 0.898682 0.532715 5.42119 0.532715 11C0.532715 16.5788 5.05523 21.1013 10.634 21.1013C16.2128 21.1013 20.7353 16.5788 20.7353 11C20.7353 5.42119 16.2128 0.898682 10.634 0.898682ZM10.634 10.0817C9.61967 10.0817 8.79739 9.25938 8.79739 8.24506C8.79739 7.23073 9.61967 6.40845 10.634 6.40845C11.6483 6.40845 12.4706 7.23073 12.4706 8.24506C12.4706 9.25938 11.6483 10.0817 10.634 10.0817ZM6.96079 8.24506C6.96079 10.2737 8.60534 11.9183 10.634 11.9183C12.6626 11.9183 14.3072 10.2737 14.3072 8.24506C14.3072 6.2164 12.6626 4.57185 10.634 4.57185C8.60534 4.57185 6.96079 6.2164 6.96079 8.24506Z" fill="#F5841F"/>
</svg>
