<svg width="14" height="14" viewBox="0 0 14 14" fill="none" xmlns="http://www.w3.org/2000/svg">
<g clip-path="url(#clip0_120_284)">
<path d="M13.1787 3.61125C13.1119 3.34429 12.9758 3.0997 12.7842 2.90217C12.5926 2.70464 12.3523 2.56117 12.0875 2.48625C11.12 2.25 7.24996 2.25 7.24996 2.25C7.24996 2.25 3.37996 2.25 2.41246 2.50875C2.14766 2.58367 1.90732 2.72714 1.71571 2.92467C1.52411 3.1222 1.38802 3.36679 1.32121 3.63375C1.14414 4.61562 1.05753 5.61167 1.06246 6.60937C1.05614 7.61459 1.14276 8.61823 1.32121 9.6075C1.39487 9.86616 1.534 10.1015 1.72516 10.2906C1.91632 10.4798 2.15304 10.6165 2.41246 10.6875C3.37996 10.9462 7.24996 10.9462 7.24996 10.9462C7.24996 10.9462 11.12 10.9462 12.0875 10.6875C12.3523 10.6126 12.5926 10.4691 12.7842 10.2716C12.9758 10.0741 13.1119 9.82946 13.1787 9.5625C13.3544 8.58802 13.441 7.59956 13.4375 6.60937C13.4438 5.60416 13.3571 4.60052 13.1787 3.61125V3.61125Z" stroke="#F5841F" stroke-width="0.9" stroke-linecap="round" stroke-linejoin="round"/>
<path d="M5.98438 8.44877L9.21875 6.60939L5.98438 4.77002V8.44877Z" stroke="#F5841F" stroke-width="0.9" stroke-linecap="round" stroke-linejoin="round"/>
</g>
<defs>
<clipPath id="clip0_120_284">
<rect width="13.5" height="13.5" fill="white" transform="translate(0.5)"/>
</clipPath>
</defs>
</svg>
