<svg width="26" height="26" viewBox="0 0 26 26" fill="none" xmlns="http://www.w3.org/2000/svg">
<path d="M15.5625 20.9688L21.7812 14.75L20 13L15.5625 17.4375L13.8125 15.6562L12.0312 17.4375L15.5625 20.9688ZM6.75 16.75H10.5V14.25H6.75V16.75ZM6.75 13H15.5V10.5H6.75V13ZM6.75 9.25H15.5V6.75H6.75V9.25ZM13 25.5C11.2708 25.5 9.64583 25.1717 8.125 24.515C6.60417 23.8592 5.28125 22.9688 4.15625 21.8438C3.03125 20.7188 2.14083 19.3958 1.485 17.875C0.828333 16.3542 0.5 14.7292 0.5 13C0.5 11.2708 0.828333 9.64583 1.485 8.125C2.14083 6.60417 3.03125 5.28125 4.15625 4.15625C5.28125 3.03125 6.60417 2.14042 8.125 1.48375C9.64583 0.827917 11.2708 0.5 13 0.5C14.7292 0.5 16.3542 0.827917 17.875 1.48375C19.3958 2.14042 20.7188 3.03125 21.8438 4.15625C22.9688 5.28125 23.8592 6.60417 24.515 8.125C25.1717 9.64583 25.5 11.2708 25.5 13C25.5 14.7292 25.1717 16.3542 24.515 17.875C23.8592 19.3958 22.9688 20.7188 21.8438 21.8438C20.7188 22.9688 19.3958 23.8592 17.875 24.515C16.3542 25.1717 14.7292 25.5 13 25.5ZM13 23C15.7917 23 18.1562 22.0312 20.0938 20.0938C22.0312 18.1562 23 15.7917 23 13C23 10.2083 22.0312 7.84375 20.0938 5.90625C18.1562 3.96875 15.7917 3 13 3C10.2083 3 7.84375 3.96875 5.90625 5.90625C3.96875 7.84375 3 10.2083 3 13C3 15.7917 3.96875 18.1562 5.90625 20.0938C7.84375 22.0312 10.2083 23 13 23Z" fill="#8ECAE6"/>
</svg>
