<svg width="12" height="14" viewBox="0 0 12 14" fill="none" xmlns="http://www.w3.org/2000/svg">
<path opacity="0.2" d="M1.5 11.7177H3.75V7.21765H8.25V11.7177H10.5V4.96765L6 1.59265L1.5 4.96765V11.7177ZM1.5 13.2177C1.0875 13.2177 0.7345 13.0709 0.441 12.7774C0.147 12.4834 0 12.1302 0 11.7177V4.96765C0 4.73015 0.0532499 4.50515 0.15975 4.29265C0.26575 4.08015 0.4125 3.90515 0.6 3.76765L5.1 0.392651C5.2375 0.292651 5.38125 0.217651 5.53125 0.167651C5.68125 0.117651 5.8375 0.0926514 6 0.0926514C6.1625 0.0926514 6.31875 0.117651 6.46875 0.167651C6.61875 0.217651 6.7625 0.292651 6.9 0.392651L11.4 3.76765C11.5875 3.90515 11.7345 4.08015 11.841 4.29265C11.947 4.50515 12 4.73015 12 4.96765V11.7177C12 12.1302 11.8533 12.4834 11.5597 12.7774C11.2657 13.0709 10.9125 13.2177 10.5 13.2177H6.75V8.71765H5.25V13.2177H1.5Z" fill="black"/>
</svg>
