<svg width="14" height="14" viewBox="0 0 14 14" fill="none" xmlns="http://www.w3.org/2000/svg">
<path d="M9 4.5C9.89511 4.5 10.7536 4.85558 11.3865 5.48851C12.0194 6.12145 12.375 6.97989 12.375 7.875V11.8125H10.125V7.875C10.125 7.57663 10.0065 7.29048 9.79549 7.07951C9.58452 6.86853 9.29837 6.75 9 6.75C8.70163 6.75 8.41548 6.86853 8.20451 7.07951C7.99353 7.29048 7.875 7.57663 7.875 7.875V11.8125H5.625V7.875C5.625 6.97989 5.98058 6.12145 6.61351 5.48851C7.24645 4.85558 8.10489 4.5 9 4.5V4.5Z" stroke="#F5841F" stroke-width="0.9" stroke-linecap="round" stroke-linejoin="round"/>
<path d="M3.375 5.0625H1.125V11.8125H3.375V5.0625Z" stroke="#F5841F" stroke-width="0.9" stroke-linecap="round" stroke-linejoin="round"/>
<path d="M2.25 3.375C2.87132 3.375 3.375 2.87132 3.375 2.25C3.375 1.62868 2.87132 1.125 2.25 1.125C1.62868 1.125 1.125 1.62868 1.125 2.25C1.125 2.87132 1.62868 3.375 2.25 3.375Z" stroke="#F5841F" stroke-width="0.9" stroke-linecap="round" stroke-linejoin="round"/>
</svg>
